#!OML:ASF I:\Actors\actors\Patient Classification 1\Patient 1\Session 1\Subject1.ASF
:FULLY-SPECIFIED
:DEGREES
282
root 0.779495 17.4828 9.42446 9.94081 -6.96186 -9.12364
lowerback -1.48857 2.1504 5.77548
upperback -8.23839 3.15839 1.77015
thorax -7.60906 1.23917 -1.51433
lowerneck -15.7618 -4.35674 -2.15939
upperneck 24.3141 -7.23472 5.93257
head 10.7381 -2.81648 1.4755
rclavicle -6.31141e-015 3.57812e-014
rhumerus 4.03715 45.7764 -79.0404
rradius 94.3787
rwrist 43.2187
rhand -2.2055 -35.957
rfingers 7.12502
rthumb 23.4763 -64.5447
lclavicle -6.31141e-015 3.57812e-014
lhumerus -23.1002 -20.838 102.199
lradius 91.7755
lwrist 9.5054
lhand -34.7284 -9.24146
lfingers 7.12502
lthumb -7.88267 20.5916
rfemur -5.84132 23.9081 24.5284
rtibia 5.22108
rfoot -11.4293 -20.4005
rtoes 1.16699
lfemur 8.21749 -44.285 -15.5855
ltibia -4.49783
lfoot -34.1645 55.8452
ltoes 22.261
283
root 0.781478 17.4819 9.42309 9.89067 -6.92663 -9.02464
lowerback -1.49244 2.10499 5.68165
upperback -8.22734 3.09324 1.76098
thorax -7.60183 1.21327 -1.46898
lowerneck -15.6825 -4.53279 -2.46083
upperneck 24.4519 -7.47491 6.14305
head 10.807 -2.9279 1.56843
rclavicle 3.87133e-014 -2.66371e-014
rhumerus 4.95453 46.7044 -77.8884
rradius 94.1127
rwrist 43.9282
rhand -0.601625 -35.6303
rfingers 7.12502
rthumb 25.014 -64.0126
lclavicle 3.87133e-014 -2.66371e-014
lhumerus -23.1372 -20.7896 102.086
lradius 91.8806
lwrist 9.63799
lhand -34.7855 -9.59195
lfingers 7.12502
lthumb -7.93772 20.239
rfemur -5.80291 23.9063 24.4282
rtibia 5.23883
rfoot -11.4582 -20.4597
rtoes 1.18726
lfemur 8.31784 -44.4394 -15.8051
ltibia -4.50478
lfoot -34.187 55.9705
ltoes 22.2052
284
root 0.783601 17.4818 9.42031 9.88679 -6.92882 -9.02407
lowerback -1.51394 2.07923 5.65131
upperback -8.23035 3.05844 1.79898
thorax -7.59819 1.19962 -1.41002
lowerneck -15.5459 -4.70242 -2.64276
upperneck 24.4693 -7.68612 6.19521
head 10.8075 -3.03838 1.58949
rclavicle 1.48592e-014 2.94201e-014
rhumerus 5.98273 47.7695 -76.5747
rradius 93.77
rwrist 44.0985
rhand 0.562392 -35.4059
rfingers 7.12502
rthumb 26.1289 -63.6282
lclavicle 1.48592e-014 2.94201e-014
lhumerus -23.1381 -20.6505 102.026
lradius 91.9597
lwrist 9.67083
lhand -34.7179 -9.53875
lfingers 7.12502
lthumb -7.87249 20.2947
rfemur -5.8346 23.92 24.4105
rtibia 5.27683
rfoot -11.4769 -20.4681
rtoes 1.28786
lfemur 8.31442 -44.4622 -15.811
ltibia -4.51652
lfoot -34.1633 56.0247
ltoes 22.1496
285
root 0.787169 17.4823 9.41679 9.89688 -6.95013 -9.0611
lowerback -1.53399 2.0827 5.7012
upperback -8.22626 3.06375 1.81805
thorax -7.58103 1.20013 -1.41696
lowerneck -15.382 -4.89754 -2.97117
upperneck 24.4029 -7.92621 6.38545
head 10.7868 -3.16175 1.68059
rclavicle 8.64713e-015 -1.47101e-014
rhumerus 7.15398 48.8131 -75.0768
rradius 93.411
rwrist 44.0968
rhand 0.380322 -34.6372
rfingers 7.12502
rthumb 25.9546 -62.8851
lclavicle 8.64713e-015 -1.47101e-014
lhumerus -23.0938 -20.5062 102.032
lradius 91.9853
lwrist 9.5489
lhand -33.9508 -8.86213
lfingers 7.12502
lthumb -7.13211 20.9977
rfemur -5.8904 23.8976 24.4161
rtibia 5.31411
rfoot -11.4921 -20.4053
rtoes 1.40546
lfemur 8.21253 -44.2397 -15.6698
ltibia -4.53921
lfoot -33.8431 55.9098
ltoes 21.9812
286
root 0.791141 17.4824 9.41437 9.88744 -6.9831 -9.09765
lowerback -1.54325 2.12225 5.79079
upperback -8.20889 3.11616 1.79344
thorax -7.54852 1.22026 -1.49387
lowerneck -15.3192 -5.22207 -3.47348
upperneck 24.4799 -8.35028 6.69497
head 10.8657 -3.36516 1.81468
rclavicle 6.80837e-015 2.78299e-015
rhumerus 8.29711 49.7439 -73.5938
rradius 93.2137
rwrist 43.9596
rhand 0.16206 -34.0955
rfingers 7.12502
rthumb 25.7456 -62.3739
lclavicle 6.80837e-015 2.78299e-015
lhumerus -23.0657 -20.4351 102.07
lradius 91.9725
lwrist 9.34143
lhand -33.0278 -8.54418
lfingers 7.12502
lthumb -6.24106 21.3439
rfemur -5.89275 23.9124 24.441
rtibia 5.32769
rfoot -11.4891 -20.3591
rtoes 1.55177
lfemur 8.18991 -44.0728 -15.5987
ltibia -4.56859
lfoot -33.6657 55.8174
ltoes 21.9023
287
root 0.794845 17.4818 9.41213 9.87526 -7.04431 -9.11273
lowerback -1.54041 2.16681 5.84675
upperback -8.20557 3.17606 1.76928
thorax -7.53902 1.24551 -1.55268
lowerneck -15.2647 -5.52476 -3.76898
upperneck 24.6273 -8.74803 6.79412
head 10.9537 -3.56061 1.84212
rclavicle -2.07233e-014 -9.14409e-015
rhumerus 9.4142 50.6142 -72.1619
rradius 93.1319
rwrist 43.52
rhand 0.554017 -33.8731
rfingers 7.12502
rthumb 26.1209 -62.0965
lclavicle -2.07233e-014 -9.14409e-015
lhumerus -23.093 -20.3715 102.065
lradius 91.9544
lwrist 9.26904
lhand -33.4601 -9.12684
lfingers 7.12502
lthumb -6.65842 20.7485
rfemur -5.88649 23.9879 24.4445
rtibia 5.32583
rfoot -11.4613 -20.3518
rtoes 1.57218
lfemur 8.28361 -44.2223 -15.6914
ltibia -4.5664
lfoot -33.9996 55.9469
ltoes 22.0929
288
root 0.798414 17.4814 9.4091 9.86387 -7.13346 -9.10766
lowerback -1.55504 2.17578 5.83376
upperback -8.19034 3.18723 1.79807
thorax -7.51528 1.2539 -1.51492
lowerneck -15.1604 -5.8086 -4.11315
upperneck 24.7303 -9.11696 6.93702
head 11.0205 -3.74464 1.89821
rclavicle 8.94531e-015 1.78906e-014
rhumerus 10.7297 51.4595 -70.6354
rradius 93.0984
rwrist 42.0901
rhand 1.1103 -33.3522
rfingers 7.12502
rthumb 26.6534 -61.4958
lclavicle 8.94531e-015 1.78906e-014
lhumerus -23.1173 -20.1777 102.022
lradius 91.9611
lwrist 9.3717
lhand -34.288 -9.54058
lfingers 7.12502
lthumb -7.45752 20.308
rfemur -5.91034 23.9704 24.411
rtibia 5.33695
rfoot -11.4052 -20.2538
rtoes 1.16221
lfemur 8.39298 -44.4007 -15.8276
ltibia -4.55505
lfoot -34.4987 56.0733
ltoes 22.4727
289
root 0.801461 17.4816 9.40668 9.84291 -7.23928 -9.08396
lowerback -1.58949 2.15237 5.76633
upperback -8.14648 3.15224 1.86156
thorax -7.45585 1.24581 -1.40757
lowerneck -14.9172 -6.10808 -4.49909
upperneck 24.6333 -9.47383 7.04353
head 10.9865 -3.94019 1.95245
rclavicle 4.53726e-014 6.36111e-015
rhumerus 12.1065 52.1792 -69.1626
rradius 93.1584
rwrist 39.8419
rhand 1.66558 -32.6696
rfingers 7.12502
rthumb 27.1847 -60.7313
lclavicle 4.53726e-014 6.36111e-015
lhumerus -23.1178 -19.8516 101.961
lradius 91.9623
lwrist 9.44711
lhand -34.462 -9.61596
lfingers 7.12502
lthumb -7.62548 20.2266
rfemur -5.91809 23.9541 24.3624
rtibia 5.33776
rfoot -11.3688 -20.1322
rtoes 0.781255
lfemur 8.50824 -44.5002 -15.9837
ltibia -4.54595
lfoot -35.026 56.1182
ltoes 22.9051
290
root 0.803755 17.4822 9.40466 9.83653 -7.3553 -9.06227
lowerback -1.58053 2.12753 5.70862
upperback -8.13381 3.12007 1.91233
thorax -7.45439 1.23576 -1.32133
lowerneck -14.576 -6.36827 -4.68947
upperneck 24.5096 -9.7915 7.01831
head 10.9041 -4.11897 1.93599
rclavicle 3.47873e-015 1.19271e-014
rhumerus 13.2314 52.6813 -67.9489
rradius 93.2784
rwrist 38.006
rhand 2.01405 -32.1794
rfingers 7.12502
rthumb 27.518 -60.1884
lclavicle 3.47873e-015 1.19271e-014
lhumerus -23.1909 -19.5623 101.882
lradius 91.9776
lwrist 9.45844
lhand -34.4928 -9.84243
lfingers 7.12502
lthumb -7.65526 19.999
rfemur -5.92887 24.0533 24.3215
rtibia 5.34431
rfoot -11.393 -20.0909
rtoes 0.669172
lfemur 8.54347 -44.4355 -16.0534
ltibia -4.55066
lfoot -35.0857 56.1478
ltoes 22.8615
291
root 0.805143 17.4817 9.40329 9.8447 -7.45378 -9.08286
lowerback -1.55027 2.11259 5.70976
upperback -8.14412 3.10526 1.95377
thorax -7.48661 1.22872 -1.27924
lowerneck -14.2095 -6.75428 -5.06081
upperneck 24.3033 -10.2649 7.08748
head 10.8144 -4.37715 1.96096
rclavicle 3.78685e-014 2.90226e-014
rhumerus 14.0876 52.8508 -67.0241
rradius 93.4141
rwrist 37.0324
rhand 2.38441 -31.6772
rfingers 7.12502
rthumb 27.8722 -59.6293
lclavicle 3.78685e-014 2.90226e-014
lhumerus -23.3588 -19.3743 101.813
lradius 92.0553
lwrist 9.4535
lhand -34.5028 -9.94886
lfingers 7.12502
lthumb -7.66489 19.8922
rfemur -5.94137 24.1228 24.3316
rtibia 5.35419
rfoot -11.3843 -20.0652
rtoes 0.612165
lfemur 8.5372 -44.2441 -15.9986
ltibia -4.6137
lfoot -34.615 56.1854
ltoes 22.395
292
root 0.806343 17.4806 9.40321 9.85198 -7.50089 -9.09627
lowerback -1.55682 2.08903 5.70565
upperback -8.15702 3.07501 1.98027
thorax -7.50051 1.21437 -1.24781
lowerneck -13.7941 -7.15274 -5.46562
upperneck 24.1272 -10.7875 7.26967
head 10.7425 -4.64877 2.02657
rclavicle 3.22031e-014 -9.54166e-015
rhumerus 14.317 52.4936 -66.8531
rradius 93.6129
rwrist 36.0153
rhand 3.09164 -30.7703
rfingers 7.12502
rthumb 28.5481 -58.6108
lclavicle 3.22031e-014 -9.54166e-015
lhumerus -23.5886 -19.2303 101.76
lradius 92.1799
lwrist 9.41438
lhand -34.5257 -9.91975
lfingers 7.12502
lthumb -7.68697 19.9205
rfemur -5.92346 24.1218 24.3361
rtibia 5.29725
rfoot -11.3405 -20.0386
rtoes 0.676543
lfemur 8.59505 -44.2524 -16.0198
ltibia -4.66993
lfoot -34.3595 56.3246
ltoes 22.1627
293
root 0.807727 17.4804 9.40291 9.87244 -7.50644 -9.09202
lowerback -1.57278 2.05144 5.82057
upperback -8.1984 3.02272 1.88859
thorax -7.53041 1.1755 -1.40515
lowerneck -13.4313 -7.60253 -5.8918
upperneck 24.1563 -11.4633 7.66985
head 10.7893 -4.96185 2.14837
rclavicle -3.13086e-014 2.78299e-015
rhumerus 13.7156 51.7392 -67.7341
rradius 93.7738
rwrist 33.7912
rhand 3.69297 -30.4047
rfingers 7.12502
rthumb 29.1225 -58.1473
lclavicle -3.13086e-014 2.78299e-015
lhumerus -23.865 -19.2047 101.562
lradius 92.3362
lwrist 9.44837
lhand -34.5858 -9.83682
lfingers 7.12502
lthumb -7.74496 20.0013
rfemur -5.92087 24.1188 24.316
rtibia 5.24554
rfoot -11.3985 -20.0116
rtoes 0.944054
lfemur 8.66384 -44.4928 -16.1157
ltibia -4.66107
lfoot -34.5254 56.543
ltoes 22.2427
294
root 0.80701 17.4809 9.40317 9.90133 -7.48894 -9.14443
lowerback -1.49441 2.00158 5.97376
upperback -8.29179 2.96502 1.78445
thorax -7.67128 1.12661 -1.60086
lowerneck -13.13 -8.07454 -6.34025
upperneck 24.3663 -12.2037 8.1206
head 10.9333 -5.29496 2.27877
rclavicle 6.55989e-015 9.14409e-015
rhumerus 11.1381 49.9811 -70.7695
rradius 94.9276
rwrist 27.8093
rhand 5.84642 -30.7741
rfingers 7.12502
rthumb 31.177 -58.1417
lclavicle 6.55989e-015 9.14409e-015
lhumerus -24.1592 -19.2031 101.326
lradius 92.4903
lwrist 9.60723
lhand -34.5178 -9.83685
lfingers 7.12502
lthumb -7.67941 20.0037
rfemur -5.93215 24.1366 24.3795
rtibia 5.25774
rfoot -11.4547 -20.0044
rtoes 1.02966
lfemur 8.75284 -44.8182 -16.1558
ltibia -4.6509
lfoot -34.9822 56.7366
ltoes 22.4776
